Coordinates
version=1
nRows=14
nColumns=24
inDegrees=yes

Units are S.I. units (second, meters, Newtons, ...)
Angles are in degrees.

endheader
time	pelvis_tilt	pelvis_list	pelvis_rotation	pelvis_tx	pelvis_ty	pelvis_tz	hip_flexion_r	hip_adduction_r	hip_rotation_r	knee_angle_r	ankle_angle_r	subtalar_angle_r	mtp_angle_r	hip_flexion_l	hip_adduction_l	hip_rotation_l	knee_angle_l	ankle_angle_l	subtalar_angle_l	mtp_angle_l	lumbar_extension	lumbar_bending	lumbar_rotation
      1.28000000	     -8.46561346	      4.41902453	    355.37856126	     -0.71823414	      1.36787920	     -1.01971827	      2.51885977	     -0.91140839	      4.16442078	    -17.69976639	     10.27888115	     -6.45287617	      7.09921299	     25.26284996	      4.24733197	     -7.53649554	      4.61927204	     -7.66711147	      7.07818737	     32.28269875	     -7.64606331	      0.46603406	     15.11430036
      1.28500000	     -8.44394228	      4.50159341	    355.32203306	     -0.71281763	      1.36731420	     -1.01997783	      2.22536776	     -1.06323896	      4.08906246	    -17.81141418	     10.37818236	     -6.25281726	      7.26702125	     25.36433011	      4.33948200	     -7.15571226	      3.91434076	     -7.87249502	      6.04959399	     32.14139680	     -7.65619152	      0.32226715	     15.12706842
      1.29000000	     -8.44260052	      4.58763721	    355.25645714	     -0.70741272	      1.36673780	     -1.02023383	      1.97525923	     -1.21710980	      4.02638703	    -17.96175237	     10.47505448	     -5.99747069	      7.43517134	     25.48654873	      4.43185512	     -6.75501519	      3.20058374	     -8.15044000	      4.95835534	     32.02232698	     -7.64851081	      0.17757352	     15.14365977
      1.29500000	     -8.49864411	      4.67452837	    355.24094549	     -0.70199143	      1.36610939	     -1.02052427	      1.80128480	     -1.36571153	      3.91832215	    -18.15265638	     10.55087176	     -5.78195586	      7.56243810	     25.67789686	      4.54360013	     -6.28896621	      2.47533716	     -8.52633308	      3.78692891	     32.03083163	     -7.58142932	      0.04308013	     15.05156472
      1.30000000	     -8.51845694	      4.78458812	    355.18286999	     -0.69658300	      1.36555992	     -1.02077360	      1.62257214	     -1.54310097	      3.82671700	    -18.39173057	     10.64278517	     -5.50361482	      7.71888955	     25.80910575	      4.67133439	     -5.90700643	      1.78936887	     -8.97612135	      2.67393717	     31.91044111	     -7.54841591	     -0.13730748	     15.07350133
      1.30500000	     -8.57762451	      4.89564696	    355.15877556	     -0.69117343	      1.36498708	     -1.02106231	      1.51253226	     -1.71765883	      3.72333123	    -18.68746910	     10.69203426	     -5.25168526	      7.86860219	     25.98009681	      4.81362878	     -5.46196602	      1.11668471	     -9.48880376	      1.51383082	     31.84879128	     -7.48129842	     -0.30503258	     15.00181600
      1.31000000	     -8.64034903	      5.02205366	    355.13712650	     -0.68576057	      1.36445076	     -1.02134689	      1.44110982	     -1.90631880	      3.62500713	    -19.04815871	     10.71793031	     -5.00300688	      8.02218975	     26.14270662	      4.97549458	     -5.04472919	      0.47424387	    -10.04262189	      0.40456749	     31.82818036	     -7.41004369	     -0.49528743	     14.93490260
      1.31500000	     -8.73373881	      5.15038655	    355.13233798	     -0.68036079	      1.36392620	     -1.02165665	      1.44119668	     -2.09272172	      3.53150017	    -19.47939169	     10.70148560	     -4.78733220	      8.20448363	     26.33384281	      5.14531850	     -4.61535750	     -0.15325031	    -10.62297191	     -0.67444400	     31.84114830	     -7.31012255	     -0.68409844	     14.85161554
      1.32000000	     -8.84357683	      5.28782617	    355.15282389	     -0.67494336	      1.36343245	     -1.02198955	      1.49614551	     -2.28523654	      3.43440047	    -19.98369087	     10.63480599	     -4.61051568	      8.43389220	     26.53212527	      5.33457461	     -4.16978429	     -0.75885373	    -11.20846267	     -1.68440474	     31.90563376	     -7.18856686	     -0.89170754	     14.75067034
      1.32500000	     -8.92248751	      5.43373307	    355.16733825	     -0.66954484	      1.36302076	     -1.02233125	      1.56555178	     -2.49076453	      3.34545528	    -20.56807461	     10.50888497	     -4.43539528	      8.72197515	     26.68659232	      5.53692542	     -3.77993036	     -1.34478017	    -11.79182279	     -2.62141913	     31.93951979	     -7.11127855	     -1.10296144	     14.64121324
      1.33000000	     -9.03421108	      5.58405703	    355.17884306	     -0.66414292	      1.36264875	     -1.02269288	      1.72649116	     -2.69772549	      3.28208888	    -21.25014630	     10.30646643	     -4.27741451	      9.06441804	     26.87236011	      5.74022167	     -3.43014777	     -1.92981459	    -12.34543747	     -3.49456871	     31.94056210	     -7.00110798	     -1.30251039	     14.51499792
      1.33500000	     -9.11619470	      5.74025071	    355.21741158	     -0.65872567	      1.36236658	     -1.02308561	      1.89432830	     -2.91512426	      3.20573340	    -22.00159407	     10.02856493	     -4.15778111	      9.50623066	     27.01833443	      5.96550758	     -3.06231527	     -2.51000233	    -12.86658748	     -4.31253749	     31.93528982	     -6.92432601	     -1.52355914	     14.36352768
      1.34000000	     -9.21643963	      5.89118321	    355.27149247	     -0.65330868	      1.36212551	     -1.02352455	      2.13822529	     -3.12648021	      3.13408045	    -22.85254851	      9.66340850	     -4.07860007	     10.04674771	     27.18832705	      6.19157573	     -2.70296951	     -3.11047862	    -13.31555701	     -5.05332927	     31.89132959	     -6.83056053	     -1.72937113	     14.21378945
      1.34500000	     -9.28493276	      6.04468775	    355.33537664	     -0.64789437	      1.36197539	     -1.02401552	      2.39865847	     -3.35071547	      3.05041146	    -23.78913888	      9.23035263	     -3.99099214	     10.66999607	     27.32618477	      6.43170280	     -2.35861464	     -3.72791015	    -13.70292963	     -5.74605576	     31.77986555	     -6.77608013	     -1.92596243	     14.05396076
